<svg width="89" height="32" viewBox="0 0 89 32" fill="none" xmlns="http://www.w3.org/2000/svg">
<path d="M0.670455 5.09304V0.454545H25.0412V5.09304H15.6001V31H10.1115V5.09304H0.670455ZM33.6513 31.4474C31.4141 31.4474 29.4752 30.9553 27.8346 29.9709C26.194 28.9865 24.9212 27.6094 24.0164 25.8395C23.1215 24.0696 22.6741 22.0014 22.6741 19.6349C22.6741 17.2685 23.1215 15.1953 24.0164 13.4155C24.9212 11.6357 26.194 10.2536 27.8346 9.26918C29.4752 8.2848 31.4141 7.79261 33.6513 7.79261C35.8886 7.79261 37.8275 8.2848 39.4681 9.26918C41.1087 10.2536 42.3765 11.6357 43.2714 13.4155C44.1762 15.1953 44.6286 17.2685 44.6286 19.6349C44.6286 22.0014 44.1762 24.0696 43.2714 25.8395C42.3765 27.6094 41.1087 28.9865 39.4681 29.9709C37.8275 30.9553 35.8886 31.4474 33.6513 31.4474ZM33.6812 27.1222C34.8942 27.1222 35.9084 26.7891 36.7238 26.1229C37.5391 25.4467 38.1457 24.5419 38.5434 23.4084C38.9511 22.2749 39.1549 21.0121 39.1549 19.62C39.1549 18.218 38.9511 16.9503 38.5434 15.8168C38.1457 14.6733 37.5391 13.7635 36.7238 13.0874C35.9084 12.4112 34.8942 12.0732 33.6812 12.0732C32.4383 12.0732 31.4042 12.4112 30.5789 13.0874C29.7636 13.7635 29.1521 14.6733 28.7444 15.8168C28.3467 16.9503 28.1478 18.218 28.1478 19.62C28.1478 21.0121 28.3467 22.2749 28.7444 23.4084C29.1521 24.5419 29.7636 25.4467 30.5789 26.1229C31.4042 26.7891 32.4383 27.1222 33.6812 27.1222ZM46.6912 31V8.09091H51.9263V11.9091H52.1649C52.5825 10.5866 53.2984 9.56747 54.3126 8.85156C55.3368 8.12571 56.5051 7.76278 57.8176 7.76278C58.1159 7.76278 58.449 7.7777 58.8169 7.80753C59.1947 7.82741 59.5079 7.86221 59.7565 7.91193V12.8786C59.5278 12.799 59.1649 12.7294 58.6677 12.6697C58.1805 12.6001 57.7082 12.5653 57.2508 12.5653C56.2665 12.5653 55.3815 12.7791 54.596 13.2067C53.8204 13.6243 53.2089 14.206 52.7615 14.9517C52.314 15.6974 52.0903 16.5575 52.0903 17.532V31H46.6912ZM67.0057 31.4624C65.554 31.4624 64.2465 31.2038 63.0831 30.6868C61.9297 30.1598 61.0149 29.3842 60.3388 28.3601C59.6726 27.3359 59.3395 26.0732 59.3395 24.5717C59.3395 23.2791 59.5781 22.2102 60.0554 21.3651C60.5327 20.5199 61.184 19.8438 62.0092 19.3366C62.8345 18.8295 63.7642 18.4467 64.7983 18.1882C65.8423 17.9197 66.9212 17.7259 68.0348 17.6065C69.3771 17.4673 70.4659 17.343 71.3011 17.2337C72.1364 17.1143 72.7429 16.9354 73.1208 16.6967C73.5085 16.4482 73.7024 16.0653 73.7024 15.5483V15.4588C73.7024 14.3352 73.3693 13.4652 72.7031 12.8487C72.0369 12.2322 71.0774 11.924 69.8246 11.924C68.5021 11.924 67.4531 12.2124 66.6776 12.7891C65.9119 13.3658 65.3949 14.0469 65.1264 14.8324L60.0852 14.1165C60.483 12.7244 61.1392 11.5611 62.054 10.6264C62.9688 9.68182 64.0874 8.97585 65.4098 8.50852C66.7323 8.03125 68.1939 7.79261 69.7948 7.79261C70.8985 7.79261 71.9972 7.92188 73.0909 8.1804C74.1847 8.43892 75.184 8.86648 76.0888 9.46307C76.9936 10.0497 77.7195 10.8501 78.2663 11.8643C78.8232 12.8786 79.1016 14.1463 79.1016 15.6676V31H73.9112V27.853H73.7323C73.4041 28.4893 72.9418 29.0859 72.3452 29.6428C71.7585 30.1896 71.0178 30.6321 70.1229 30.9702C69.2379 31.2983 68.1989 31.4624 67.0057 31.4624ZM68.4077 27.495C69.4915 27.495 70.4311 27.2812 71.2266 26.8537C72.022 26.4162 72.6335 25.8395 73.0611 25.1236C73.4986 24.4077 73.7173 23.6271 73.7173 22.782V20.0824C73.5483 20.2216 73.26 20.3509 72.8523 20.4702C72.4546 20.5895 72.0071 20.6939 71.51 20.7834C71.0128 20.8729 70.5206 20.9524 70.0334 21.022C69.5462 21.0916 69.1236 21.1513 68.7656 21.201C67.9602 21.3104 67.2394 21.4893 66.603 21.7379C65.9666 21.9865 65.4645 22.3345 65.0966 22.782C64.7287 23.2195 64.5448 23.7862 64.5448 24.4822C64.5448 25.4766 64.9077 26.2273 65.6335 26.7344C66.3594 27.2415 67.2841 27.495 68.4077 27.495ZM85.3365 31.3281C84.4317 31.3281 83.6561 31.0099 83.0098 30.3736C82.3635 29.7372 82.0454 28.9616 82.0553 28.0469C82.0454 27.152 82.3635 26.3864 83.0098 25.75C83.6561 25.1136 84.4317 24.7955 85.3365 24.7955C86.2115 24.7955 86.9722 25.1136 87.6185 25.75C88.2748 26.3864 88.6079 27.152 88.6178 28.0469C88.6079 28.6534 88.4488 29.2053 88.1405 29.7024C87.8422 30.1996 87.4445 30.5973 86.9473 30.8956C86.4601 31.1839 85.9232 31.3281 85.3365 31.3281Z" fill="black"/>
</svg>
